<svg width="71" height="14" viewBox="0 0 71 14" fill="none" xmlns="http://www.w3.org/2000/svg">
<g id="Portf&#195;&#179;lio">
<path d="M9.264 6.32C9.264 7.03467 9.09867 7.68533 8.768 8.272C8.43733 8.848 7.94667 9.30667 7.296 9.648C6.656 9.98933 5.87733 10.16 4.96 10.16H3.552V13.76H0V2.432H4.96C6.34667 2.432 7.408 2.784 8.144 3.488C8.89067 4.192 9.264 5.136 9.264 6.32ZM4.56 7.36C5.296 7.36 5.664 7.01333 5.664 6.32C5.664 5.62667 5.296 5.28 4.56 5.28H3.552V7.36H4.56Z" fill="white"/>
<path d="M14.6786 13.872C13.772 13.872 12.956 13.6853 12.2306 13.312C11.5053 12.9387 10.9346 12.4053 10.5186 11.712C10.1133 11.008 9.91063 10.1867 9.91063 9.248C9.91063 8.30933 10.1133 7.49333 10.5186 6.8C10.9346 6.096 11.5053 5.55733 12.2306 5.184C12.956 4.81067 13.772 4.624 14.6786 4.624C15.5853 4.624 16.4013 4.81067 17.1266 5.184C17.852 5.55733 18.4173 6.096 18.8226 6.8C19.2386 7.49333 19.4466 8.30933 19.4466 9.248C19.4466 10.1867 19.2386 11.008 18.8226 11.712C18.4173 12.4053 17.852 12.9387 17.1266 13.312C16.4013 13.6853 15.5853 13.872 14.6786 13.872ZM14.6786 10.8C15.0093 10.8 15.2866 10.672 15.5106 10.416C15.7346 10.1493 15.8466 9.76 15.8466 9.248C15.8466 8.736 15.7346 8.352 15.5106 8.096C15.2866 7.82933 15.0093 7.696 14.6786 7.696C14.348 7.696 14.0706 7.82933 13.8466 8.096C13.6226 8.352 13.5106 8.736 13.5106 9.248C13.5106 9.76 13.6173 10.1493 13.8306 10.416C14.0546 10.672 14.3373 10.8 14.6786 10.8Z" fill="white"/>
<path d="M24.1145 6.4C24.4772 5.87733 24.9198 5.46133 25.4425 5.152C25.9652 4.832 26.5092 4.672 27.0745 4.672V8.464H26.0665C25.3945 8.464 24.8985 8.58133 24.5785 8.816C24.2692 9.05067 24.1145 9.46667 24.1145 10.064V13.76H20.5625V4.736H24.1145V6.4Z" fill="white"/>
<path d="M33.6473 10.736V13.76H32.3032C29.8286 13.76 28.5912 12.528 28.5912 10.064V7.696H27.4713V4.736H28.5912V2.56H32.1432V4.736H33.6152V7.696H32.1432V10.128C32.1432 10.3413 32.1912 10.496 32.2873 10.592C32.3939 10.688 32.5646 10.736 32.7993 10.736H33.6473Z" fill="white"/>
<path d="M40.2 4.096C40.008 4.07467 39.8747 4.064 39.8 4.064C39.5333 4.064 39.3307 4.11733 39.192 4.224C39.0533 4.32 38.9573 4.49067 38.904 4.736H40.2V7.696H38.872V13.76H35.32V7.696H34.36V4.736H35.32C35.3413 3.56267 35.7093 2.656 36.424 2.016C37.1493 1.36533 38.1627 1.04 39.464 1.04C39.6133 1.04 39.8587 1.05067 40.2 1.072V4.096Z" fill="white"/>
<path d="M45.4443 13.872C44.5376 13.872 43.7216 13.6853 42.9963 13.312C42.2709 12.9387 41.7002 12.4053 41.2842 11.712C40.8789 11.008 40.6763 10.1867 40.6763 9.248C40.6763 8.30933 40.8789 7.49333 41.2842 6.8C41.7002 6.096 42.2709 5.55733 42.9963 5.184C43.7216 4.81067 44.5376 4.624 45.4443 4.624C46.3509 4.624 47.1669 4.81067 47.8923 5.184C48.6176 5.55733 49.1829 6.096 49.5882 6.8C50.0042 7.49333 50.2122 8.30933 50.2122 9.248C50.2122 10.1867 50.0042 11.008 49.5882 11.712C49.1829 12.4053 48.6176 12.9387 47.8923 13.312C47.1669 13.6853 46.3509 13.872 45.4443 13.872ZM45.4443 10.8C45.7749 10.8 46.0522 10.672 46.2762 10.416C46.5002 10.1493 46.6123 9.76 46.6123 9.248C46.6123 8.736 46.5002 8.352 46.2762 8.096C46.0522 7.82933 45.7749 7.696 45.4443 7.696C45.1136 7.696 44.8363 7.82933 44.6123 8.096C44.3883 8.352 44.2762 8.736 44.2762 9.248C44.2762 9.76 44.3829 10.1493 44.5962 10.416C44.8202 10.672 45.1029 10.8 45.4443 10.8ZM47.8923 2.624L43.7482 4.128V1.76L47.8923 0V2.624Z" fill="white"/>
<path d="M54.8801 1.92V13.76H51.3281V1.92H54.8801Z" fill="white"/>
<path d="M58.2764 4.016C57.6577 4.016 57.1617 3.85067 56.7884 3.52C56.415 3.18933 56.2284 2.77333 56.2284 2.272C56.2284 1.76 56.415 1.33867 56.7884 1.008C57.1617 0.666666 57.6577 0.495999 58.2764 0.495999C58.8844 0.495999 59.375 0.666666 59.7484 1.008C60.1217 1.33867 60.3084 1.76 60.3084 2.272C60.3084 2.77333 60.1217 3.18933 59.7484 3.52C59.375 3.85067 58.8844 4.016 58.2764 4.016ZM60.0364 4.736V13.76H56.4844V4.736H60.0364Z" fill="white"/>
<path d="M65.9286 13.872C65.022 13.872 64.206 13.6853 63.4806 13.312C62.7553 12.9387 62.1846 12.4053 61.7686 11.712C61.3633 11.008 61.1606 10.1867 61.1606 9.248C61.1606 8.30933 61.3633 7.49333 61.7686 6.8C62.1846 6.096 62.7553 5.55733 63.4806 5.184C64.206 4.81067 65.022 4.624 65.9286 4.624C66.8353 4.624 67.6513 4.81067 68.3766 5.184C69.102 5.55733 69.6673 6.096 70.0726 6.8C70.4886 7.49333 70.6966 8.30933 70.6966 9.248C70.6966 10.1867 70.4886 11.008 70.0726 11.712C69.6673 12.4053 69.102 12.9387 68.3766 13.312C67.6513 13.6853 66.8353 13.872 65.9286 13.872ZM65.9286 10.8C66.2593 10.8 66.5366 10.672 66.7606 10.416C66.9846 10.1493 67.0966 9.76 67.0966 9.248C67.0966 8.736 66.9846 8.352 66.7606 8.096C66.5366 7.82933 66.2593 7.696 65.9286 7.696C65.598 7.696 65.3206 7.82933 65.0966 8.096C64.8726 8.352 64.7606 8.736 64.7606 9.248C64.7606 9.76 64.8673 10.1493 65.0806 10.416C65.3046 10.672 65.5873 10.8 65.9286 10.8Z" fill="white"/>
</g>
</svg>
